# Blender 4.1.1
# www.blender.org
mtllib BaseFloor.mtl
o BaseFloor
v 0.000000 -0.072458 -2.336844
v 0.455896 -0.072458 -2.291942
v 0.894272 -0.072458 -2.158962
v 1.298281 -0.072458 -1.943015
v 1.652398 -0.072458 -1.652398
v 1.943015 -0.072458 -1.298281
v 2.158962 -0.072458 -0.894272
v 2.291942 -0.072458 -0.455896
v 2.336844 -0.072458 0.000000
v 2.291942 -0.072458 0.455896
v 2.158962 -0.072458 0.894272
v 1.943015 -0.072458 1.298281
v 1.652398 -0.072458 1.652398
v 1.298281 -0.072458 1.943015
v 0.894272 -0.072458 2.158962
v 0.455896 -0.072458 2.291942
v 0.000000 -0.072458 2.336844
v -0.455896 -0.072458 2.291942
v -0.894272 -0.072458 2.158962
v -1.298281 -0.072458 1.943015
v -1.652398 -0.072458 1.652398
v -1.943015 -0.072458 1.298281
v -2.158962 -0.072458 0.894272
v -2.291942 -0.072458 0.455896
v -2.336844 -0.072458 0.000000
v -2.291942 -0.072458 -0.455896
v -2.158962 -0.072458 -0.894272
v -1.943015 -0.072458 -1.298281
v -1.652398 -0.072458 -1.652398
v -1.298281 -0.072458 -1.943015
v -0.894272 -0.072458 -2.158962
v -0.455896 -0.072458 -2.291942
v 0.000000 -0.007635 -2.310784
v 0.000000 -0.033571 -2.336844
v 0.000000 -0.015232 -2.329211
v 0.450811 -0.007635 -2.266382
v 0.455896 -0.033571 -2.291942
v 0.454406 -0.015232 -2.284456
v 0.884299 -0.007635 -2.134885
v 0.894272 -0.033571 -2.158962
v 0.891351 -0.015232 -2.151911
v 1.283803 -0.007635 -1.921346
v 1.298281 -0.033571 -1.943015
v 1.294040 -0.015232 -1.936668
v 1.633971 -0.007635 -1.633971
v 1.652398 -0.033571 -1.652398
v 1.647001 -0.015232 -1.647001
v 1.921346 -0.007635 -1.283803
v 1.943015 -0.033571 -1.298281
v 1.936668 -0.015232 -1.294040
v 2.134885 -0.007635 -0.884299
v 2.158962 -0.033571 -0.894272
v 2.151911 -0.015232 -0.891351
v 2.266382 -0.007635 -0.450811
v 2.291942 -0.033571 -0.455896
v 2.284456 -0.015232 -0.454406
v 2.310784 -0.007635 0.000000
v 2.336844 -0.033571 0.000000
v 2.329211 -0.015232 0.000000
v 2.266382 -0.007635 0.450811
v 2.291942 -0.033571 0.455896
v 2.284456 -0.015232 0.454406
v 2.134885 -0.007635 0.884299
v 2.158962 -0.033571 0.894272
v 2.151911 -0.015232 0.891351
v 1.921346 -0.007635 1.283803
v 1.943015 -0.033571 1.298281
v 1.936668 -0.015232 1.294040
v 1.633971 -0.007635 1.633971
v 1.652398 -0.033571 1.652398
v 1.647001 -0.015232 1.647001
v 1.283803 -0.007635 1.921346
v 1.298281 -0.033571 1.943015
v 1.294040 -0.015232 1.936668
v 0.884299 -0.007635 2.134885
v 0.894272 -0.033571 2.158962
v 0.891351 -0.015232 2.151911
v 0.450811 -0.007635 2.266382
v 0.455896 -0.033571 2.291942
v 0.454406 -0.015232 2.284456
v 0.000000 -0.007635 2.310784
v 0.000000 -0.033571 2.336844
v 0.000000 -0.015232 2.329211
v -0.450811 -0.007635 2.266382
v -0.455896 -0.033571 2.291942
v -0.454406 -0.015232 2.284456
v -0.884299 -0.007635 2.134885
v -0.894272 -0.033571 2.158962
v -0.891351 -0.015232 2.151911
v -1.283803 -0.007635 1.921346
v -1.298281 -0.033571 1.943015
v -1.294040 -0.015232 1.936668
v -1.633971 -0.007635 1.633971
v -1.652398 -0.033571 1.652398
v -1.647001 -0.015232 1.647001
v -1.921346 -0.007635 1.283803
v -1.943015 -0.033571 1.298281
v -1.936668 -0.015232 1.294040
v -2.134885 -0.007635 0.884299
v -2.158962 -0.033571 0.894272
v -2.151911 -0.015232 0.891351
v -2.266382 -0.007635 0.450811
v -2.291942 -0.033571 0.455896
v -2.284456 -0.015232 0.454406
v -2.310784 -0.007635 0.000000
v -2.336844 -0.033571 0.000000
v -2.329211 -0.015232 0.000000
v -2.266382 -0.007635 -0.450811
v -2.291942 -0.033571 -0.455896
v -2.284456 -0.015232 -0.454406
v -2.134885 -0.007635 -0.884299
v -2.158962 -0.033571 -0.894272
v -2.151911 -0.015232 -0.891351
v -1.921346 -0.007635 -1.283803
v -1.943015 -0.033571 -1.298281
v -1.936668 -0.015232 -1.294040
v -1.633971 -0.007635 -1.633971
v -1.652398 -0.033571 -1.652398
v -1.647001 -0.015232 -1.647001
v -1.283803 -0.007635 -1.921346
v -1.298281 -0.033571 -1.943015
v -1.294040 -0.015232 -1.936668
v -0.884299 -0.007635 -2.134885
v -0.894272 -0.033571 -2.158962
v -0.891351 -0.015232 -2.151911
v -0.450811 -0.007635 -2.266382
v -0.455896 -0.033571 -2.291942
v -0.454406 -0.015232 -2.284456
v 0.455896 -0.072458 -2.291942
v 0.000000 -0.072458 -2.336844
v 0.894272 -0.072458 -2.158962
v 1.298281 -0.072458 -1.943015
v 1.652398 -0.072458 -1.652398
v 1.943015 -0.072458 -1.298281
v 2.158962 -0.072458 -0.894272
v 2.291942 -0.072458 -0.455896
v 2.336844 -0.072458 0.000000
v 2.291942 -0.072458 0.455896
v 2.158962 -0.072458 0.894272
v 1.943015 -0.072458 1.298281
v 1.652398 -0.072458 1.652398
v 1.298281 -0.072458 1.943015
v 0.894272 -0.072458 2.158962
v 0.455896 -0.072458 2.291942
v 0.000000 -0.072458 2.336844
v -0.455896 -0.072458 2.291942
v -0.894272 -0.072458 2.158962
v -1.298281 -0.072458 1.943015
v -1.652398 -0.072458 1.652398
v -1.943015 -0.072458 1.298281
v -2.158962 -0.072458 0.894272
v -2.291942 -0.072458 0.455896
v -2.336844 -0.072458 0.000000
v -2.291942 -0.072458 -0.455896
v -2.158962 -0.072458 -0.894272
v -1.943015 -0.072458 -1.298281
v -1.652398 -0.072458 -1.652398
v -1.298281 -0.072458 -1.943015
v -0.894272 -0.072458 -2.158962
v -0.455896 -0.072458 -2.291942
v 0.454406 -0.015232 -2.284456
v 0.000000 -0.015232 -2.329211
v 0.891351 -0.015232 -2.151911
v 1.294040 -0.015232 -1.936668
v 1.647001 -0.015232 -1.647001
v 1.936668 -0.015232 -1.294040
v 2.151911 -0.015232 -0.891351
v 2.284456 -0.015232 -0.454406
v 2.329211 -0.015232 0.000000
v 2.284456 -0.015232 0.454406
v 2.151911 -0.015232 0.891351
v 1.936668 -0.015232 1.294040
v 1.647001 -0.015232 1.647001
v 1.294040 -0.015232 1.936668
v 0.891351 -0.015232 2.151911
v 0.454406 -0.015232 2.284456
v 0.000000 -0.015232 2.329211
v -0.454406 -0.015232 2.284456
v -0.891351 -0.015232 2.151911
v -1.294040 -0.015232 1.936668
v -1.647001 -0.015232 1.647001
v -1.936668 -0.015232 1.294040
v -2.151911 -0.015232 0.891351
v -2.284456 -0.015232 0.454406
v -2.329211 -0.015232 0.000000
v -2.284456 -0.015232 -0.454406
v -2.151911 -0.015232 -0.891351
v -1.936668 -0.015232 -1.294040
v -1.647001 -0.015232 -1.647001
v -1.294040 -0.015232 -1.936668
v -0.891351 -0.015232 -2.151911
v -0.454406 -0.015232 -2.284456
vn -0.0000 -0.0000 1.0000
vn -0.1951 -0.0000 0.9808
vn -0.3827 -0.0000 0.9239
vn -0.0000 1.0000 -0.0000
vn -0.0000 -0.9786 0.2059
vn -0.0000 -0.1936 0.9811
vn -0.0000 -0.9245 0.3811
vn -0.0402 -0.9786 0.2019
vn -0.1914 -0.1936 0.9622
vn -0.0743 -0.9245 0.3738
vn -0.0788 -0.9786 0.1902
vn -0.3754 -0.1936 0.9064
vn -0.1458 -0.9245 0.3521
vn -0.1144 -0.9786 0.1712
vn -0.5451 -0.1936 0.8157
vn -0.2117 -0.9245 0.3169
vn -0.1456 -0.9786 0.1456
vn -0.6937 -0.1936 0.6937
vn -0.2695 -0.9245 0.2695
vn -0.1712 -0.9786 0.1144
vn -0.8157 -0.1936 0.5451
vn -0.3169 -0.9245 0.2117
vn -0.1902 -0.9786 0.0788
vn -0.9064 -0.1936 0.3754
vn -0.3521 -0.9245 0.1458
vn -0.2019 -0.9786 0.0402
vn -0.9622 -0.1936 0.1914
vn -0.3738 -0.9245 0.0744
vn -0.2059 -0.9786 -0.0000
vn -0.9811 -0.1936 -0.0000
vn -0.3811 -0.9245 -0.0000
vn -0.2019 -0.9786 -0.0402
vn -0.9622 -0.1936 -0.1914
vn -0.3738 -0.9245 -0.0744
vn -0.1902 -0.9786 -0.0788
vn -0.9064 -0.1936 -0.3754
vn -0.3521 -0.9245 -0.1458
vn -0.1712 -0.9786 -0.1144
vn -0.8157 -0.1936 -0.5451
vn -0.3169 -0.9245 -0.2117
vn -0.1456 -0.9786 -0.1456
vn -0.6937 -0.1936 -0.6937
vn -0.2695 -0.9245 -0.2695
vn -0.1144 -0.9786 -0.1712
vn -0.5451 -0.1936 -0.8157
vn -0.2117 -0.9245 -0.3169
vn -0.0788 -0.9786 -0.1902
vn -0.3754 -0.1936 -0.9064
vn -0.1458 -0.9245 -0.3521
vn -0.0402 -0.9786 -0.2019
vn -0.1914 -0.1936 -0.9622
vn -0.0743 -0.9245 -0.3738
vn -0.0000 -0.9786 -0.2059
vn -0.0000 -0.1936 -0.9811
vn -0.0000 -0.9245 -0.3811
vn 0.0402 -0.9786 -0.2019
vn 0.1914 -0.1936 -0.9622
vn 0.0743 -0.9245 -0.3738
vn 0.0788 -0.9786 -0.1902
vn 0.3754 -0.1936 -0.9064
vn 0.1458 -0.9245 -0.3521
vn 0.1144 -0.9786 -0.1712
vn 0.5451 -0.1936 -0.8157
vn 0.2117 -0.9245 -0.3169
vn 0.1456 -0.9786 -0.1456
vn 0.6937 -0.1936 -0.6937
vn 0.2695 -0.9245 -0.2695
vn 0.1712 -0.9786 -0.1144
vn 0.8157 -0.1936 -0.5451
vn 0.3169 -0.9245 -0.2117
vn 0.1902 -0.9786 -0.0788
vn 0.9064 -0.1936 -0.3754
vn 0.3521 -0.9245 -0.1458
vn 0.2019 -0.9786 -0.0402
vn 0.9622 -0.1936 -0.1914
vn 0.3738 -0.9245 -0.0744
vn 0.2059 -0.9786 -0.0000
vn 0.9811 -0.1936 -0.0000
vn 0.3811 -0.9245 -0.0000
vn 0.2019 -0.9786 0.0402
vn 0.9622 -0.1936 0.1914
vn 0.3738 -0.9245 0.0744
vn 0.1902 -0.9786 0.0788
vn 0.9064 -0.1936 0.3754
vn 0.3521 -0.9245 0.1458
vn 0.1712 -0.9786 0.1144
vn 0.8157 -0.1936 0.5451
vn 0.3169 -0.9245 0.2117
vn 0.1456 -0.9786 0.1456
vn 0.6937 -0.1936 0.6937
vn 0.2695 -0.9245 0.2695
vn 0.1144 -0.9786 0.1712
vn 0.5451 -0.1936 0.8157
vn 0.2117 -0.9245 0.3169
vn 0.0788 -0.9786 0.1902
vn 0.3754 -0.1936 0.9064
vn 0.1458 -0.9245 0.3521
vn 0.0402 -0.9786 0.2019
vn 0.1914 -0.1936 0.9622
vn 0.0743 -0.9245 0.3738
vn -0.5556 -0.0000 0.8315
vn -0.7071 -0.0000 0.7071
vn -0.8315 -0.0000 0.5556
vn -0.9239 -0.0000 0.3827
vn -0.9808 -0.0000 0.1951
vn -1.0000 -0.0000 -0.0000
vn -0.9808 -0.0000 -0.1951
vn -0.9239 -0.0000 -0.3827
vn -0.8315 -0.0000 -0.5556
vn -0.7071 -0.0000 -0.7071
vn -0.5556 -0.0000 -0.8315
vn -0.3827 -0.0000 -0.9239
vn -0.1951 -0.0000 -0.9808
vn -0.0000 -0.0000 -1.0000
vn 0.1951 -0.0000 -0.9808
vn 0.3827 -0.0000 -0.9239
vn 0.5556 -0.0000 -0.8315
vn 0.7071 -0.0000 -0.7071
vn 0.8315 -0.0000 -0.5556
vn 0.9239 -0.0000 -0.3827
vn 0.9808 -0.0000 -0.1951
vn 1.0000 -0.0000 -0.0000
vn 0.9808 -0.0000 0.1951
vn 0.9239 -0.0000 0.3827
vn 0.8315 -0.0000 0.5556
vn 0.7071 -0.0000 0.7071
vn 0.5556 -0.0000 0.8315
vn 0.3827 -0.0000 0.9239
vn 0.1951 -0.0000 0.9808
vn -0.1801 -0.3843 0.9055
vn -0.0000 -0.3842 0.9232
vn -0.3533 -0.3842 0.8530
vn -0.5129 -0.3843 0.7676
vn -0.6528 -0.3843 0.6528
vn -0.7676 -0.3843 0.5129
vn -0.8530 -0.3842 0.3533
vn -0.9055 -0.3843 0.1801
vn -0.9232 -0.3843 -0.0000
vn -0.9055 -0.3843 -0.1801
vn -0.8530 -0.3842 -0.3533
vn -0.7676 -0.3843 -0.5129
vn -0.6528 -0.3843 -0.6528
vn -0.5129 -0.3843 -0.7676
vn -0.3533 -0.3842 -0.8530
vn -0.1801 -0.3843 -0.9055
vn -0.0000 -0.3842 -0.9232
vn 0.1801 -0.3843 -0.9055
vn 0.3533 -0.3842 -0.8530
vn 0.5129 -0.3843 -0.7676
vn 0.6528 -0.3843 -0.6528
vn 0.7676 -0.3843 -0.5129
vn 0.8530 -0.3842 -0.3533
vn 0.9055 -0.3843 -0.1801
vn 0.9232 -0.3843 -0.0000
vn 0.9055 -0.3843 0.1801
vn 0.8530 -0.3842 0.3533
vn 0.7676 -0.3843 0.5129
vn 0.6528 -0.3843 0.6528
vn 0.5129 -0.3843 0.7676
vn 0.3533 -0.3842 0.8530
vn 0.1801 -0.3843 0.9055
vt 0.384679 0.873188
vt 0.382200 0.839087
vt 0.384679 0.839087
vt 0.456581 0.873188
vt 0.454102 0.839087
vt 0.456581 0.839087
vt 0.454102 0.873188
vt 0.451623 0.839087
vt 0.451623 0.873188
vt 0.449143 0.839087
vt 0.449143 0.873188
vt 0.446664 0.839087
vt 0.446664 0.873188
vt 0.444185 0.839087
vt 0.444185 0.873188
vt 0.441705 0.839087
vt 0.441705 0.873188
vt 0.439226 0.839087
vt 0.439226 0.873188
vt 0.436746 0.839087
vt 0.436746 0.873188
vt 0.434267 0.839087
vt 0.434267 0.873188
vt 0.431788 0.839087
vt 0.431788 0.873188
vt 0.429308 0.839087
vt 0.429308 0.873188
vt 0.426829 0.839087
vt 0.426829 0.873188
vt 0.424350 0.839087
vt 0.424350 0.873188
vt 0.421870 0.839087
vt 0.421870 0.873188
vt 0.419391 0.839087
vt 0.419391 0.873188
vt 0.416911 0.839087
vt 0.416911 0.873188
vt 0.414432 0.839087
vt 0.414432 0.873188
vt 0.411953 0.839087
vt 0.411953 0.873188
vt 0.409473 0.839087
vt 0.409473 0.873188
vt 0.406994 0.839087
vt 0.406994 0.873188
vt 0.404514 0.839087
vt 0.404514 0.873188
vt 0.402035 0.839087
vt 0.402035 0.873188
vt 0.399556 0.839087
vt 0.399556 0.873188
vt 0.397076 0.839087
vt 0.397076 0.873188
vt 0.394597 0.839087
vt 0.394597 0.873188
vt 0.392118 0.839087
vt 0.392118 0.873188
vt 0.389638 0.839087
vt 0.389638 0.873188
vt 0.387159 0.839087
vt 0.387159 0.873188
vt -0.985250 -0.713390
vt 0.377188 -0.149049
vt -0.187152 1.213390
vt 0.459061 0.873188
vt 0.459061 0.839087
vt 0.461540 0.873188
vt 0.461540 0.839087
vt 0.461536 0.833518
vt 1.586559 1.292733
vt 1.787391 1.261323
vt 1.586226 1.281137
vt 0.459057 0.833518
vt 1.984956 1.213486
vt 1.789979 1.272632
vt 0.456577 0.833518
vt 2.165262 1.117185
vt 1.980826 1.202646
vt 1.985570 1.213232
vt 0.451627 0.833518
vt 0.454098 0.833518
vt 2.323315 0.987558
vt 2.159095 1.107359
vt 2.165814 1.116816
vt 0.451619 0.833518
vt 2.323785 0.987088
vt 2.443584 0.822868
vt 2.315350 0.979124
vt 0.446668 0.833518
vt 0.449139 0.833518
vt 2.453412 0.829035
vt 2.538872 0.644599
vt 0.446660 0.833518
vt 2.549713 0.648730
vt 2.597549 0.451165
vt 0.444181 0.833518
vt 2.628959 0.250332
vt 2.608988 0.453101
vt 0.441701 0.833518
vt 2.628959 0.249668
vt 2.597549 0.048835
vt 2.617363 0.250000
vt 0.439222 0.833518
vt 2.549713 -0.148730
vt 2.608859 0.046247
vt 0.436742 0.833518
vt 2.453412 -0.329035
vt 2.538874 -0.144599
vt 2.549459 -0.149343
vt 0.431792 0.833518
vt 0.434263 0.833518
vt 2.323785 -0.487088
vt 2.443585 -0.322869
vt 2.453042 -0.329588
vt 0.431784 0.833518
vt 2.323315 -0.487558
vt 2.159096 -0.607358
vt 2.315350 -0.479123
vt 0.426833 0.833518
vt 0.429304 0.833518
vt 2.165262 -0.617185
vt 1.980826 -0.702646
vt 0.426825 0.833518
vt 1.984956 -0.713486
vt 1.787391 -0.761323
vt 0.424345 0.833518
vt 1.586559 -0.792733
vt 1.789328 -0.772762
vt 0.421866 0.833518
vt 1.585894 -0.792733
vt 1.385062 -0.761323
vt 1.586226 -0.781136
vt 0.419387 0.833518
vt 1.187497 -0.713486
vt 1.382474 -0.772632
vt 0.416907 0.833518
vt 1.007192 -0.617185
vt 1.191628 -0.702646
vt 1.186883 -0.713232
vt 0.411957 0.833518
vt 0.414428 0.833518
vt 0.849138 -0.487558
vt 1.013358 -0.607359
vt 1.006639 -0.616816
vt 0.411949 0.833518
vt 0.848668 -0.487088
vt 0.728868 -0.322869
vt 0.857103 -0.479123
vt 0.406998 0.833518
vt 0.409469 0.833518
vt 0.719041 -0.329035
vt 0.633582 -0.144599
vt 0.406990 0.833518
vt 0.622740 -0.148730
vt 0.574903 0.048835
vt 0.404510 0.833518
vt 0.543494 0.249668
vt 0.563465 0.046899
vt 0.402031 0.833518
vt 0.543494 0.250332
vt 0.574903 0.451165
vt 0.555091 0.250000
vt 0.399552 0.833518
vt 0.622740 0.648730
vt 0.563595 0.453753
vt 0.397072 0.833518
vt 0.719042 0.829035
vt 0.633581 0.644599
vt 0.622994 0.649343
vt 0.392122 0.833518
vt 0.394593 0.833518
vt 0.848668 0.987088
vt 0.728868 0.822869
vt 0.719411 0.829587
vt 0.392113 0.833518
vt 0.849138 0.987558
vt 1.013358 1.107359
vt 0.857103 0.979123
vt 0.387163 0.833518
vt 0.389634 0.833518
vt 1.007192 1.117185
vt 1.191628 1.202646
vt 0.387155 0.833518
vt 1.187497 1.213486
vt 1.385062 1.261323
vt 0.384675 0.833518
vt 1.585894 1.292733
vt 1.383125 1.272762
vt 0.382200 0.873188
vt -0.382768 1.272729
vt -0.586201 1.292765
vt -0.789635 1.272729
vt -0.985250 1.213390
vt -1.165531 1.117028
vt -1.323548 0.987346
vt -1.453229 0.829329
vt -1.549591 0.649049
vt -1.608930 0.453433
vt -1.628967 0.250000
vt -1.608930 0.046567
vt -1.549591 -0.149049
vt -1.453229 -0.329329
vt -1.323548 -0.487346
vt -1.165531 -0.617028
vt -0.789635 -0.772729
vt -0.586201 -0.792765
vt -0.382768 -0.772729
vt -0.187152 -0.713390
vt -0.006872 -0.617028
vt 0.151145 -0.487346
vt 0.280826 -0.329329
vt 0.436528 0.046567
vt 0.456564 0.250000
vt 0.436528 0.453433
vt 0.377188 0.649049
vt 0.280826 0.829329
vt 0.151145 0.987346
vt -0.006872 1.117028
vt 0.459065 0.833518
vt 1.789328 1.272762
vt 0.456585 0.833518
vt 0.454106 0.833518
vt 0.449147 0.833518
vt 2.453043 0.829587
vt 2.549459 0.649343
vt 0.444189 0.833518
vt 2.608858 0.453753
vt 0.441709 0.833518
vt 0.439230 0.833518
vt 2.608988 0.046899
vt 0.436750 0.833518
vt 0.434271 0.833518
vt 0.429312 0.833518
vt 2.165814 -0.616816
vt 1.985570 -0.713232
vt 0.424354 0.833518
vt 1.789979 -0.772632
vt 0.421874 0.833518
vt 0.419395 0.833518
vt 1.383125 -0.772762
vt 0.416915 0.833518
vt 0.414436 0.833518
vt 0.409477 0.833518
vt 0.719411 -0.329587
vt 0.622994 -0.149343
vt 0.404519 0.833518
vt 0.563595 0.046247
vt 0.402039 0.833518
vt 0.399560 0.833518
vt 0.563465 0.453101
vt 0.397080 0.833518
vt 0.394601 0.833518
vt 0.389642 0.833518
vt 1.006639 1.116816
vt 1.186883 1.213232
vt 0.384683 0.833518
vt 1.382474 1.272632
vt 0.382204 0.833518
s 1
usemtl Material.001
f 160/1/129 34/2/6 127/3/99
f 3/4/3 43/5/15 40/6/12
f 132/7/101 46/8/18 43/5/15
f 133/9/102 49/10/21 46/8/18
f 134/11/103 52/12/24 49/10/21
f 135/13/104 55/14/27 52/12/24
f 136/15/105 58/16/30 55/14/27
f 137/17/106 61/18/33 58/16/30
f 138/19/107 64/20/36 61/18/33
f 139/21/108 67/22/39 64/20/36
f 140/23/109 70/24/42 67/22/39
f 141/25/110 73/26/45 70/24/42
f 142/27/111 76/28/48 73/26/45
f 143/29/112 79/30/51 76/28/48
f 144/31/113 82/32/54 79/30/51
f 145/33/114 85/34/57 82/32/54
f 146/35/115 88/36/60 85/34/57
f 147/37/116 91/38/63 88/36/60
f 148/39/117 94/40/66 91/38/63
f 149/41/118 97/42/69 94/40/66
f 150/43/119 100/44/72 97/42/69
f 151/45/120 103/46/75 100/44/72
f 152/47/121 106/48/78 103/46/75
f 153/49/122 109/50/81 106/48/78
f 154/51/123 112/52/84 109/50/81
f 155/53/124 115/54/87 112/52/84
f 156/55/125 118/56/90 115/54/87
f 157/57/126 121/58/93 118/56/90
f 158/59/127 124/60/96 121/58/93
f 159/61/128 127/3/99 124/60/96
f 19/62/4 11/63/4 131/64/4
f 2/65/2 40/6/12 37/66/9
f 1/67/1 37/66/9 34/68/6
f 37/66/9 162/69/131 34/68/6
f 35/70/7 36/71/8 33/72/5
f 40/6/12 161/73/130 37/66/9
f 41/74/13 36/71/8 38/75/10
f 43/5/15 163/76/132 40/6/12
f 44/77/16 39/78/11 41/79/13
f 43/5/15 165/80/134 164/81/133
f 47/82/19 42/83/14 44/84/16
f 49/10/21 165/85/134 46/8/18
f 47/86/19 48/87/20 45/88/17
f 49/10/21 167/89/136 166/90/135
f 50/91/22 51/92/23 48/87/20
f 55/14/27 167/93/136 52/12/24
f 53/94/25 54/95/26 51/92/23
f 58/16/30 168/96/137 55/14/27
f 59/97/31 54/95/26 56/98/28
f 61/18/33 169/99/138 58/16/30
f 59/100/31 60/101/32 57/102/29
f 64/20/36 170/103/139 61/18/33
f 65/104/37 60/101/32 62/105/34
f 67/22/39 171/106/140 64/20/36
f 68/107/40 63/108/35 65/109/37
f 67/22/39 173/110/142 172/111/141
f 71/112/43 66/113/38 68/114/40
f 73/26/45 173/115/142 70/24/42
f 71/116/43 72/117/44 69/118/41
f 73/26/45 175/119/144 174/120/143
f 74/121/46 75/122/47 72/117/44
f 79/30/51 175/123/144 76/28/48
f 77/124/49 78/125/50 75/122/47
f 82/32/54 176/126/145 79/30/51
f 83/127/55 78/125/50 80/128/52
f 85/34/57 177/129/146 82/32/54
f 83/130/55 84/131/56 81/132/53
f 88/36/60 178/133/147 85/34/57
f 89/134/61 84/131/56 86/135/58
f 91/38/63 179/136/148 88/36/60
f 92/137/64 87/138/59 89/139/61
f 91/38/63 181/140/150 180/141/149
f 95/142/67 90/143/62 92/144/64
f 97/42/69 181/145/150 94/40/66
f 95/146/67 96/147/68 93/148/65
f 97/42/69 183/149/152 182/150/151
f 98/151/70 99/152/71 96/147/68
f 103/46/75 183/153/152 100/44/72
f 101/154/73 102/155/74 99/152/71
f 106/48/78 184/156/153 103/46/75
f 107/157/79 102/155/74 104/158/76
f 109/50/81 185/159/154 106/48/78
f 107/160/79 108/161/80 105/162/77
f 112/52/84 186/163/155 109/50/81
f 113/164/85 108/161/80 110/165/82
f 115/54/87 187/166/156 112/52/84
f 116/167/88 111/168/83 113/169/85
f 115/54/87 189/170/158 188/171/157
f 119/172/91 114/173/86 116/174/88
f 121/58/93 189/175/158 118/56/90
f 119/176/91 120/177/92 117/178/89
f 121/58/93 191/179/160 190/180/159
f 122/181/94 123/182/95 120/177/92
f 127/3/99 191/183/160 124/60/96
f 125/184/97 126/185/98 123/182/95
f 34/2/6 192/186/161 127/3/99
f 35/187/7 126/185/98 128/188/100
f 78/125/50 102/155/74 126/185/98
f 160/1/129 1/189/1 34/2/6
f 3/4/3 132/7/101 43/5/15
f 132/7/101 133/9/102 46/8/18
f 133/9/102 134/11/103 49/10/21
f 134/11/103 135/13/104 52/12/24
f 135/13/104 136/15/105 55/14/27
f 136/15/105 137/17/106 58/16/30
f 137/17/106 138/19/107 61/18/33
f 138/19/107 139/21/108 64/20/36
f 139/21/108 140/23/109 67/22/39
f 140/23/109 141/25/110 70/24/42
f 141/25/110 142/27/111 73/26/45
f 142/27/111 143/29/112 76/28/48
f 143/29/112 144/31/113 79/30/51
f 144/31/113 145/33/114 82/32/54
f 145/33/114 146/35/115 85/34/57
f 146/35/115 147/37/116 88/36/60
f 147/37/116 148/39/117 91/38/63
f 148/39/117 149/41/118 94/40/66
f 149/41/118 150/43/119 97/42/69
f 150/43/119 151/45/120 100/44/72
f 151/45/120 152/47/121 103/46/75
f 152/47/121 153/49/122 106/48/78
f 153/49/122 154/51/123 109/50/81
f 154/51/123 155/53/124 112/52/84
f 155/53/124 156/55/125 115/54/87
f 156/55/125 157/57/126 118/56/90
f 157/57/126 158/59/127 121/58/93
f 158/59/127 159/61/128 124/60/96
f 159/61/128 160/1/129 127/3/99
f 131/64/4 129/190/4 130/191/4
f 130/191/4 32/192/4 31/193/4
f 31/193/4 30/194/4 29/195/4
f 29/195/4 28/196/4 27/197/4
f 27/197/4 26/198/4 25/199/4
f 25/199/4 24/200/4 23/201/4
f 23/201/4 22/202/4 21/203/4
f 21/203/4 20/204/4 19/62/4
f 19/62/4 18/205/4 17/206/4
f 17/206/4 16/207/4 15/208/4
f 15/208/4 14/209/4 13/210/4
f 13/210/4 12/211/4 11/63/4
f 11/63/4 10/212/4 9/213/4
f 9/213/4 8/214/4 7/215/4
f 7/215/4 6/216/4 5/217/4
f 5/217/4 4/218/4 131/64/4
f 131/64/4 130/191/4 31/193/4
f 31/193/4 29/195/4 27/197/4
f 27/197/4 25/199/4 23/201/4
f 23/201/4 21/203/4 19/62/4
f 19/62/4 17/206/4 15/208/4
f 15/208/4 13/210/4 11/63/4
f 11/63/4 9/213/4 7/215/4
f 7/215/4 5/217/4 131/64/4
f 131/64/4 31/193/4 27/197/4
f 27/197/4 23/201/4 19/62/4
f 19/62/4 15/208/4 11/63/4
f 11/63/4 7/215/4 131/64/4
f 131/64/4 27/197/4 19/62/4
f 2/65/2 3/4/3 40/6/12
f 1/67/1 2/65/2 37/66/9
f 37/66/9 161/219/130 162/69/131
f 35/70/7 38/220/10 36/71/8
f 40/6/12 163/221/132 161/73/130
f 41/74/13 39/78/11 36/71/8
f 43/5/15 164/222/133 163/76/132
f 44/77/16 42/83/14 39/78/11
f 43/5/15 46/8/18 165/80/134
f 47/82/19 45/88/17 42/83/14
f 49/10/21 166/223/135 165/85/134
f 47/86/19 50/224/22 48/87/20
f 49/10/21 52/12/24 167/89/136
f 50/91/22 53/225/25 51/92/23
f 55/14/27 168/226/137 167/93/136
f 53/94/25 56/227/28 54/95/26
f 58/16/30 169/228/138 168/96/137
f 59/97/31 57/102/29 54/95/26
f 61/18/33 170/229/139 169/99/138
f 59/100/31 62/230/34 60/101/32
f 64/20/36 171/231/140 170/103/139
f 65/104/37 63/108/35 60/101/32
f 67/22/39 172/232/141 171/106/140
f 68/107/40 66/113/38 63/108/35
f 67/22/39 70/24/42 173/110/142
f 71/112/43 69/118/41 66/113/38
f 73/26/45 174/233/143 173/115/142
f 71/116/43 74/234/46 72/117/44
f 73/26/45 76/28/48 175/119/144
f 74/121/46 77/235/49 75/122/47
f 79/30/51 176/236/145 175/123/144
f 77/124/49 80/237/52 78/125/50
f 82/32/54 177/238/146 176/126/145
f 83/127/55 81/132/53 78/125/50
f 85/34/57 178/239/147 177/129/146
f 83/130/55 86/240/58 84/131/56
f 88/36/60 179/241/148 178/133/147
f 89/134/61 87/138/59 84/131/56
f 91/38/63 180/242/149 179/136/148
f 92/137/64 90/143/62 87/138/59
f 91/38/63 94/40/66 181/140/150
f 95/142/67 93/148/65 90/143/62
f 97/42/69 182/243/151 181/145/150
f 95/146/67 98/244/70 96/147/68
f 97/42/69 100/44/72 183/149/152
f 98/151/70 101/245/73 99/152/71
f 103/46/75 184/246/153 183/153/152
f 101/154/73 104/247/76 102/155/74
f 106/48/78 185/248/154 184/156/153
f 107/157/79 105/162/77 102/155/74
f 109/50/81 186/249/155 185/159/154
f 107/160/79 110/250/82 108/161/80
f 112/52/84 187/251/156 186/163/155
f 113/164/85 111/168/83 108/161/80
f 115/54/87 188/252/157 187/166/156
f 116/167/88 114/173/86 111/168/83
f 115/54/87 118/56/90 189/170/158
f 119/172/91 117/178/89 114/173/86
f 121/58/93 190/253/159 189/175/158
f 119/176/91 122/254/94 120/177/92
f 121/58/93 124/60/96 191/179/160
f 122/181/94 125/255/97 123/182/95
f 127/3/99 192/256/161 191/183/160
f 125/184/97 128/257/100 126/185/98
f 34/2/6 162/258/131 192/186/161
f 35/187/7 33/72/5 126/185/98
f 126/185/98 33/72/5 36/71/8
f 36/71/8 39/78/11 42/83/14
f 42/83/14 45/88/17 48/87/20
f 48/87/20 51/92/23 54/95/26
f 54/95/26 57/102/29 60/101/32
f 60/101/32 63/108/35 66/113/38
f 66/113/38 69/118/41 72/117/44
f 72/117/44 75/122/47 78/125/50
f 78/125/50 81/132/53 84/131/56
f 84/131/56 87/138/59 90/143/62
f 90/143/62 93/148/65 96/147/68
f 96/147/68 99/152/71 102/155/74
f 102/155/74 105/162/77 108/161/80
f 108/161/80 111/168/83 114/173/86
f 114/173/86 117/178/89 120/177/92
f 120/177/92 123/182/95 126/185/98
f 126/185/98 36/71/8 42/83/14
f 42/83/14 48/87/20 54/95/26
f 54/95/26 60/101/32 66/113/38
f 66/113/38 72/117/44 78/125/50
f 78/125/50 84/131/56 90/143/62
f 90/143/62 96/147/68 102/155/74
f 102/155/74 108/161/80 114/173/86
f 114/173/86 120/177/92 126/185/98
f 126/185/98 42/83/14 54/95/26
f 54/95/26 66/113/38 78/125/50
f 78/125/50 90/143/62 102/155/74
f 102/155/74 114/173/86 126/185/98
f 126/185/98 54/95/26 78/125/50
